<svg width="26" height="31" viewBox="0 0 26 31" fill="none" xmlns="http://www.w3.org/2000/svg">
<path d="M3.71094 20.8008V14.0625C4.60938 13.6719 5.57292 13.3529 6.60156 13.1055C7.64323 12.8451 8.63932 12.5521 9.58984 12.2266C10.5404 11.888 11.3281 11.4062 11.9531 10.7812C12.3307 10.4036 12.5195 9.99349 12.5195 9.55078C12.5195 8.79557 12.2852 8.19661 11.8164 7.75391C11.3607 7.29818 10.7617 7.07031 10.0195 7.07031C9.09505 7.07031 8.28776 7.27865 7.59766 7.69531C6.90755 8.09896 6.33464 8.60677 5.87891 9.21875H0V2.46094C1.53646 1.69271 3.2487 1.09375 5.13672 0.664062C7.03776 0.221354 9.17969 0 11.5625 0C13.4115 0 15.1497 0.16276 16.7773 0.488281C18.4049 0.800781 19.8372 1.32161 21.0742 2.05078C22.3112 2.77995 23.2812 3.75651 23.9844 4.98047C24.6875 6.20443 25.0391 7.72786 25.0391 9.55078C25.0391 11.4909 24.6354 13.0534 23.8281 14.2383C23.0208 15.4102 21.9466 16.3216 20.6055 16.9727C19.2773 17.6237 17.8125 18.1315 16.2109 18.4961V20.7812H3.76953C3.75651 20.7943 3.73698 20.8008 3.71094 20.8008ZM3.71094 30.8008V23.3008H16.2109V30.8008H3.71094Z" fill="white"/>
</svg>
